<?xml version="1.0" standalone="no"?>
<!DOCTYPE svg PUBLIC "-//W3C//DTD SVG 20010904//EN"
 "http://www.w3.org/TR/2001/REC-SVG-20010904/DTD/svg10.dtd">
<svg version="1.0" xmlns="http://www.w3.org/2000/svg"
 width="130.000000pt" height="130.000000pt" viewBox="0 0 130.000000 130.000000"
 preserveAspectRatio="xMidYMid meet">
<metadata>
Created by potrace 1.11, written by Peter Selinger 2001-2013
</metadata>
<g transform="translate(0.000000,130.000000) scale(0.100000,-0.100000)"
fill="#000000" stroke="none">
<path d="M512 1205 c-94 -22 -199 -82 -272 -154 -121 -120 -171 -236 -176
-406 -2 -76 2 -122 12 -150 7 -22 14 -47 14 -55 1 -8 9 -29 18 -46 9 -18 25
-48 36 -68 10 -20 22 -36 27 -36 5 0 9 -6 9 -14 0 -25 131 -135 203 -171 116
-58 131 -47 118 82 -1 9 -14 12 -43 9 -70 -7 -117 20 -157 91 -18 34 -44 67
-57 74 -32 17 -31 39 2 39 19 0 42 -16 84 -60 32 -33 66 -61 76 -62 11 0 26
-2 34 -3 29 -2 70 17 70 34 0 9 6 26 14 37 14 20 12 21 -37 33 -68 17 -128 52
-159 94 -59 76 -69 208 -24 300 18 38 24 64 21 92 -2 22 1 57 7 78 11 35 13
37 42 31 17 -3 51 -17 75 -30 38 -21 52 -24 100 -18 72 9 133 9 197 0 44 -6
59 -4 101 17 27 14 63 27 81 30 28 5 33 2 39 -21 4 -15 7 -52 8 -82 0 -36 9
-72 25 -105 43 -91 25 -239 -38 -308 -23 -25 -91 -65 -122 -70 -14 -3 -37 -8
-52 -12 -26 -7 -27 -8 -11 -32 12 -18 17 -52 18 -137 1 -61 5 -117 9 -124 12
-20 39 -14 116 24 132 66 245 202 296 354 23 69 26 251 5 325 -28 96 -82 187
-155 260 -70 69 -181 138 -238 149 -14 2 -35 8 -45 13 -27 14 -211 13 -271 -2z"/>
</g>
</svg>
